<mxfile host="65bd71144e">
    <diagram id="eGLk4Z8ibDaawNsVyFnV" name="Page-1">
        <mxGraphModel dx="1909" dy="1337" grid="1" gridSize="10" guides="1" tooltips="1" connect="1" arrows="1" fold="1" page="1" pageScale="1" pageWidth="850" pageHeight="1100" math="0" shadow="0">
            <root>
                <mxCell id="0"/>
                <mxCell id="1" parent="0"/>
                <mxCell id="2" value="flowchart TD&#10;    A[Christmas] --&gt;|Get money| B(Go shopping)&#10;    B --&gt; C{Let me think}&#10;    C --&gt;|One| D[Laptop]&#10;    C --&gt;|Two| E[iPhone]&#10;    C --&gt;|Three| F[fa:fa-car Car]&#10;  " style="shadow=0;dashed=0;align=left;strokeWidth=1;shape=mxgraph.mermaid.abstract.mermaid;labelBackgroundColor=#ffffff;noLabel=1;" vertex="1" parent="1">
                    <mxGeometry x="140" y="240" width="630" height="830" as="geometry"/>
                </mxCell>
            </root>
        </mxGraphModel>
    </diagram>
</mxfile>